# xmcd CD database file
#
# Track frame offsets:
#	150
#	16026
#	47390
#	64167
#	97218
#	118756
#	138255
#	155130
#	179198
#	195213
#
# Disc length: 2837 seconds
#
# Revision: 0
# Processed by: cddbd v1.5.1PL0 Copyright (c) Steve Scherf et al.
# Submitted via: CDex 1.51
#
DISCID=870b130a
DTITLE=Chambers Variété Club - Live de demonstration
DYEAR=2004
DGENRE=Blues
TTITLE0=NougaYork
TTITLE1=Les lacs du Connemara
TTITLE2=Rouge
TTITLE3=Lonely Crowd
TTITLE4=Chanteur de jazz
TTITLE5=Marguerite
TTITLE6=Diego
TTITLE7=Vladimir Ilitch
TTITLE8=Je m'voyais deja
TTITLE9=le blues du businessman
EXTD=YEAR: 2004
EXTT0=
EXTT1=
EXTT2=
EXTT3=
EXTT4=
EXTT5=
EXTT6=
EXTT7=
EXTT8=
EXTT9=
PLAYORDER=
